<?xml version="1.0" encoding="utf-8"?>
<!-- Generator: Adobe Illustrator 23.0.1, SVG Export Plug-In . SVG Version: 6.00 Build 0)  -->
<svg version="1.1" xmlns="http://www.w3.org/2000/svg" xmlns:xlink="http://www.w3.org/1999/xlink" x="0px" y="0px"
	 viewBox="0 0 1000 180" style="enable-background:new 0 0 1000 180;" xml:space="preserve">
<style type="text/css">
	.st0{display:none;stroke:#FFFFFF;stroke-miterlimit:10;}
	.st1{fill:none;}
	.st2{fill:#FFFFFF;}
	.st3{font-family:'Oswald-DemiBold';}
	.st4{font-size:95px;}
	.st5{display:none;}
	.st6{display:inline;fill:#1E2225;}
	.st7{display:inline;}
	.st8{fill:#1E2225;}
	.st9{display:inline;fill:none;}
	.st10{display:inline;enable-background:new    ;}
	.st11{display:none;enable-background:new    ;}
	.st12{display:none;fill:none;}
	.st13{display:inline;fill:#FFFFFF;}
</style>
<g id="Capa_2">
	<rect y="-54" class="st0" width="1007" height="315"/>
	<rect x="241.2" y="50" class="st1" width="726.8" height="152"/>
	<text transform="matrix(1 0 0 1 241.2002 126.9092)" class="st2 st3 st4">Personal Portfolio</text>
</g>
<g id="Capa_1">
	<g id="Capa_3" class="st5">
		<rect class="st6" width="1000" height="180"/>
	</g>
	<g class="st5">
		<g class="st7">
			<circle class="st8" cx="127.5" cy="90.5" r="77.5"/>
		</g>
		<rect x="100.2" y="51.4" class="st9" width="56.4" height="78.5"/>
		<g class="st10">
			<path class="st2" d="M105.9,128.8V51.4h20.2c2.9,0,5.5,0.1,7.7,0.4s4.5,0.9,6.7,1.8c2.2,0.9,4.1,2,5.5,3.5
				c1.4,1.4,2.6,3.4,3.5,5.9c0.8,2.3,1.2,5,1.2,8c0,0.2,0,0.4,0,0.7c-0.1,9-3.9,14.2-11.3,15.5c4.4,0.6,7.8,2.5,10.2,5.6
				s3.5,7.5,3.6,13c0,0.2,0,0.4,0,0.5c0,7.6-2,13.2-5.9,16.8c-4,3.7-9.9,5.6-17.5,5.6h-23.9V128.8z M123,82.3h3.3
				c3.7,0,6.2-0.8,7.5-2.5c1.3-1.6,2-4.3,2-7.8c0-6.1-3.3-9.1-10-9.1H123V82.3z M123,116.8h3.6c3.7,0,6.3-0.9,7.8-2.7
				s2.2-4.7,2.2-8.5c0-4.4-0.8-7.4-2.3-9.2s-4.2-2.7-8-2.7H123V116.8z"/>
		</g>
		<rect x="240.2" y="51.4" class="st9" width="705.8" height="78.5"/>
		<g class="st10">
			<path class="st8" d="M253.1,128.8V64h-11.9V51.4H282V64h-11.8v64.7h-17.1V128.8z"/>
			<path class="st8" d="M287.8,128.8V51.4h15.6v27.1c3.9-3.9,8.4-5.9,13.5-5.9c3.3,0,5.8,1.2,7.5,3.6s2.6,5.5,2.6,9.2v43.4h-15.6
				v-41c0-1.4-0.2-2.4-0.7-3.1c-0.4-0.7-1.2-1-2.4-1c-1.4,0-3,0.7-4.9,2v43.1L287.8,128.8L287.8,128.8z"/>
			<path class="st8" d="M354.5,129.8c-6.1,0-10.8-1.6-14.1-4.9c-3.3-3.3-5-7.9-5-13.8V91.2c0-5.9,1.7-10.5,5-13.8s8.1-4.9,14.1-4.9
				c6.1,0,10.7,1.6,13.8,4.7c3.1,3.2,4.6,7.8,4.6,13.9V102h-22.1v9.7c0,2.2,0.3,3.9,0.8,5.1c0.6,1.1,1.5,1.7,2.8,1.7
				c2.6,0,3.9-1.8,3.9-5.4v-3.7h14.5v3.2c0,5.5-1.6,9.7-4.8,12.6C364.8,128.3,360.3,129.8,354.5,129.8z M350.8,94.8h7.6v-5.5
				c0-2.1-0.3-3.5-1-4.4s-1.7-1.3-2.9-1.3c-1.2,0-2.1,0.5-2.7,1.5s-0.9,2.7-0.9,5.1v4.6H350.8z"/>
			<path class="st8" d="M381.3,128.8V73.5h15.3V78c3.7-3.7,8.1-5.5,13.2-5.5c2.2,0,4.1,0.6,5.7,1.7s2.9,2.7,3.7,4.9
				c3.9-4.4,8.6-6.5,14.1-6.5c3.2,0,5.8,1.2,7.7,3.5c1.9,2.4,2.9,5.6,2.9,9.8v42.9h-15.3V87.4c0-1.5-0.3-2.6-0.8-3.3
				c-0.5-0.7-1.4-1-2.5-0.9c-1.7,0.1-3.4,0.7-5.1,2v0.7v42.9H405V87.4c0-1.5-0.3-2.6-0.8-3.3c-0.5-0.7-1.4-1-2.5-1
				c-1.6,0.1-3.3,0.8-5.2,2.1v43.5h-15.2V128.8z"/>
			<path class="st8" d="M471.3,129.8c-6.1,0-10.8-1.6-14.1-4.9c-3.3-3.3-5-7.9-5-13.8V91.2c0-5.9,1.7-10.5,5-13.8s8.1-4.9,14.1-4.9
				c6.1,0,10.7,1.6,13.8,4.7c3.1,3.2,4.6,7.8,4.6,13.9V102h-22.1v9.7c0,2.2,0.3,3.9,0.8,5.1c0.6,1.1,1.5,1.7,2.8,1.7
				c2.6,0,3.9-1.8,3.9-5.4v-3.7h14.5v3.2c0,5.5-1.6,9.7-4.8,12.6C481.7,128.3,477.1,129.8,471.3,129.8z M467.6,94.8h7.6v-5.5
				c0-2.1-0.3-3.5-1-4.4s-1.7-1.3-2.9-1.3c-1.2,0-2.1,0.5-2.7,1.5s-0.9,2.7-0.9,5.1v4.6H467.6z"/>
			<path class="st8" d="M514.4,129.8c-4.7,0-8.6-1.1-11.7-3.3s-5.6-5.7-7.5-10.6l10.8-4.7c1.1,2.6,2.3,4.6,3.7,6.1
				c1.3,1.3,2.6,2,4,2c0.2,0,0.3,0,0.5,0c1-0.1,1.8-0.4,2.4-1.1c0.7-0.7,1-1.6,0.9-2.6c0-0.5-0.2-1.1-0.6-1.7c-0.4-0.6-1-1.4-2-2.3
				s-1.7-1.6-2.1-1.9c-0.4-0.3-1.3-1.1-2.7-2.3l-4.3-3.7c-6.3-5.3-9.4-10.5-9.4-15.5c0-3,0.8-5.7,2.4-8.1s3.6-4.2,6.2-5.4
				s5.4-1.9,8.4-1.9c4.5,0,8.3,1.2,11.3,3.7s5.2,6,6.4,10.5L521,91.7c-0.6-2.1-1.5-3.9-2.7-5.5s-2.5-2.4-4-2.5c-0.1,0-0.1,0-0.1,0
				c-1.1,0-2,0.3-2.6,0.9c-0.7,0.6-1,1.4-1.1,2.3c-0.1,1.5,2.1,4.1,6.6,7.9c0.4,0.3,0.7,0.6,0.8,0.7l4.2,3.7
				c1.6,1.4,2.8,2.5,3.6,3.3s1.8,1.9,2.9,3.3c1.2,1.4,2,2.8,2.5,4.3s0.8,3,0.8,4.7c0,3.1-0.8,5.9-2.5,8.2c-1.7,2.3-3.8,4.1-6.5,5.2
				C520.4,129.2,517.5,129.8,514.4,129.8z"/>
			<path class="st8" d="M563.9,128.8V51.4h20.2c2.9,0,5.5,0.1,7.7,0.4s4.5,0.9,6.7,1.8s4.1,2,5.5,3.5c1.4,1.4,2.6,3.4,3.5,5.9
				c0.8,2.3,1.2,5,1.2,8c0,0.2,0,0.4,0,0.7c-0.1,9-3.9,14.2-11.3,15.5c4.4,0.6,7.8,2.5,10.2,5.6s3.5,7.5,3.6,13c0,0.2,0,0.4,0,0.5
				c0,7.6-2,13.2-5.9,16.8c-4,3.7-9.9,5.6-17.5,5.6h-23.9V128.8z M581,82.3h3.3c3.7,0,6.2-0.8,7.5-2.5c1.3-1.6,2-4.3,2-7.8
				c0-6.1-3.3-9.1-10-9.1H581V82.3z M581,116.8h3.6c3.7,0,6.3-0.9,7.8-2.7s2.2-4.7,2.2-8.5c0-4.4-0.8-7.4-2.3-9.2s-4.2-2.7-8-2.7
				H581V116.8z"/>
			<path class="st8" d="M651.6,125.1c-3.4,3.1-8.2,4.7-14.2,4.7s-10.8-1.6-14.1-4.7s-5.1-7.6-5.1-13.5V90.7c0-5.9,1.7-10.4,5.1-13.5
				s8.1-4.6,14.1-4.6s10.8,1.6,14.2,4.7s5.2,7.6,5.2,13.5v20.9C656.8,117.5,655.1,122,651.6,125.1z M637.4,119.3
				c1.5,0,2.5-0.6,3.1-1.7s0.9-2.8,0.9-5v-23c0-2.2-0.3-3.9-0.9-5c-0.6-1.1-1.6-1.7-3.1-1.7c-1.4,0-2.4,0.6-3,1.7s-0.9,2.8-0.9,5v23
				c0,2.1,0.3,3.8,0.9,4.9C635,118.7,636,119.3,637.4,119.3z"/>
			<path class="st8" d="M697.8,125.1c-3.4,3.1-8.2,4.7-14.2,4.7s-10.8-1.6-14.1-4.7c-3.4-3.1-5.1-7.6-5.1-13.5V90.7
				c0-5.9,1.7-10.4,5.1-13.5c3.4-3.1,8.1-4.6,14.1-4.6s10.8,1.6,14.2,4.7s5.2,7.6,5.2,13.5v20.9C703,117.5,701.2,122,697.8,125.1z
				 M683.6,119.3c1.5,0,2.5-0.6,3.1-1.7s0.9-2.8,0.9-5v-23c0-2.2-0.3-3.9-0.9-5c-0.6-1.1-1.6-1.7-3.1-1.7c-1.4,0-2.4,0.6-3,1.7
				s-0.9,2.8-0.9,5v23c0,2.1,0.3,3.8,0.9,4.9C681.1,118.7,682.2,119.3,683.6,119.3z"/>
			<path class="st8" d="M727.3,129.4c-1.7-0.1-3.3-0.3-4.6-0.7c-1.4-0.4-2.6-1-3.5-1.6c-1-0.7-1.8-1.5-2.5-2.5s-1.3-2-1.7-3.1
				s-0.8-2.3-1-3.7s-0.4-2.7-0.5-4s-0.1-2.7-0.1-4.4V83.7h-5.3V73.5h5.3V56.8h15.7v16.8h7.9v10.2h-7.9v28.6c0,2.9,1.7,4.4,5,4.5
				c0.4,0,0.9,0,1.4,0s0.9-0.1,1.3-0.1c0.3,0,0.7-0.1,1-0.2s0.5-0.1,0.5-0.1v12.3c-3.3,0.6-6.4,0.8-9.2,0.8
				C728.3,129.5,727.8,129.5,727.3,129.4z"/>
			<path class="st8" d="M761.6,129.8c-4.7,0-8.6-1.1-11.7-3.3s-5.6-5.7-7.5-10.6l10.8-4.7c1.1,2.6,2.3,4.6,3.7,6.1
				c1.3,1.3,2.6,2,4,2c0.2,0,0.3,0,0.5,0c1-0.1,1.8-0.4,2.4-1.1s1-1.6,0.9-2.6c0-0.5-0.2-1.1-0.6-1.7c-0.4-0.6-1-1.4-2-2.3
				s-1.7-1.6-2.1-1.9c-0.4-0.3-1.3-1.1-2.7-2.3l-4.3-3.7c-6.3-5.3-9.4-10.5-9.4-15.5c0-3,0.8-5.7,2.4-8.1c1.6-2.4,3.6-4.2,6.2-5.4
				s5.4-1.9,8.4-1.9c4.5,0,8.3,1.2,11.3,3.7s5.2,6,6.4,10.5l-10.1,4.7c-0.6-2.1-1.5-3.9-2.7-5.5s-2.5-2.4-4-2.5c-0.1,0-0.1,0-0.1,0
				c-1.1,0-2,0.3-2.6,0.9c-0.7,0.6-1,1.4-1.1,2.3c-0.1,1.5,2.1,4.1,6.6,7.9c0.4,0.3,0.7,0.6,0.8,0.7l4.2,3.7
				c1.6,1.4,2.8,2.5,3.6,3.3s1.8,1.9,2.9,3.3c1.2,1.4,2,2.8,2.5,4.3s0.8,3,0.8,4.7c0,3.1-0.8,5.9-2.5,8.2c-1.7,2.3-3.8,4.1-6.5,5.2
				C767.6,129.2,764.7,129.8,761.6,129.8z"/>
			<path class="st8" d="M801.4,129.4c-1.7-0.1-3.3-0.3-4.6-0.7c-1.4-0.4-2.6-1-3.5-1.6c-1-0.7-1.8-1.5-2.5-2.5s-1.3-2-1.7-3.1
				s-0.8-2.3-1-3.7s-0.4-2.7-0.5-4s-0.1-2.7-0.1-4.4V83.7h-5.3V73.5h5.3V56.8h15.7v16.8h7.9v10.2h-7.9v28.6c0,2.9,1.7,4.4,5,4.5
				c0.4,0,0.9,0,1.4,0s0.9-0.1,1.3-0.1c0.3,0,0.7-0.1,1-0.2s0.5-0.1,0.5-0.1v12.3c-3.3,0.6-6.4,0.8-9.2,0.8
				C802.5,129.5,802,129.5,801.4,129.4z"/>
			<path class="st8" d="M819.7,128.8V73.5h15.6v9.2c3.4-6.6,7.1-9.9,11.1-9.9c0.6,0,1.3,0.1,2.2,0.4V87c-0.9-0.2-1.7-0.3-2.6-0.3
				c-4.3,0.2-7.8,2.4-10.7,6.7v35.4L819.7,128.8L819.7,128.8z"/>
			<path class="st8" d="M866.1,129.8c-3.9-0.1-7-1.5-9.4-4.2c-2.3-2.7-3.5-5.8-3.5-9.3c0-1.8,0.2-3.5,0.7-5.1s1-2.9,1.6-4.1
				s1.5-2.3,2.7-3.4s2.2-2,3.1-2.6c0.9-0.7,2.2-1.4,3.7-2.1c1.5-0.8,2.8-1.3,3.7-1.7c0.9-0.4,2.2-0.9,3.8-1.5s2.7-1,3.4-1.3V89
				c0-1.6-0.2-2.8-0.7-3.6s-1.3-1.3-2.6-1.3c-2.1,0-3.2,1.5-3.4,4.4l-0.4,4.1L854.4,92c0-0.1,0-0.4,0-0.9s0-0.8,0-0.9
				c0.5-6,2.3-10.5,5.6-13.3c3.3-2.9,8-4.3,14.1-4.3c5.4,0,9.6,1.5,12.4,4.5c2.8,3,4.3,7,4.3,12.1v25.7c0,3.5,0.3,8.2,1,13.9H878
				c-0.8-4.5-1.2-7.1-1.3-7.8c-0.7,2.5-2,4.6-3.8,6.3C871.1,128.9,868.8,129.8,866.1,129.8z M871.7,119c0.7,0,1.5-0.3,2.3-0.8
				s1.4-1.1,1.9-1.8v-15.1c-2.5,1.2-4.5,3-6.1,5.3s-2.4,4.5-2.4,6.6c0,1.8,0.4,3.2,1.2,4.3C869.4,118.5,870.5,119,871.7,119z"/>
			<path class="st8" d="M900.2,147V73.5h15.6v4.1c3.8-3.3,7.6-5,11.5-5c0.2,0,0.4,0,0.5,0c4,0.1,6.9,1.7,8.9,4.8
				c1.9,3,2.9,6.9,2.9,11.6v23.6c0,5.3-1,9.5-3.2,12.6c-2.1,3.1-5.1,4.7-9,4.7s-7.7-1.7-11.7-5.1V147H900.2z M920,119.6
				C920,119.6,920.1,119.6,920,119.6c1.4,0,2.4-0.6,3-1.7c0.6-1.2,0.9-2.7,1-4.5V87.7c0-1.7-0.3-3.1-1-4.2c-0.6-1-1.5-1.5-2.7-1.5
				c-0.1,0-0.3,0-0.4,0c-1.2,0.1-2.5,0.7-4.1,1.8v34.3C917.3,119.1,918.7,119.6,920,119.6z"/>
		</g>
	</g>
	<g>
		<g>
			<circle class="st2" cx="128.5" cy="90" r="77.5"/>
		</g>
		<rect x="101.2" y="50.9" class="st1" width="56.4" height="78.5"/>
		<g class="st11">
			<path class="st6" d="M106.9,128.3V50.9h20.2c2.9,0,5.5,0.1,7.7,0.4s4.5,0.9,6.7,1.8c2.2,0.9,4.1,2,5.5,3.5
				c1.4,1.4,2.6,3.4,3.5,5.9c0.8,2.3,1.2,5,1.2,8c0,0.2,0,0.4,0,0.7c-0.1,9-3.9,14.2-11.3,15.5c4.4,0.6,7.8,2.5,10.2,5.6
				s3.5,7.5,3.6,13c0,0.2,0,0.4,0,0.5c0,7.6-2,13.2-5.9,16.8c-4,3.7-9.9,5.6-17.5,5.6h-23.9V128.3z M124,81.8h3.3
				c3.7,0,6.2-0.8,7.5-2.5c1.3-1.6,2-4.3,2-7.8c0-6.1-3.3-9.1-10-9.1H124V81.8z M124,116.3h3.6c3.7,0,6.3-0.9,7.8-2.7
				s2.2-4.7,2.2-8.5c0-4.4-0.8-7.4-2.3-9.2s-4.2-2.7-8-2.7H124V116.3z"/>
		</g>
		<rect x="106.1" y="51" class="st1" width="53.9" height="81"/>
		<text transform="matrix(1 0 0 1 106.1002 127.9092)" class="st8 st3 st4">P</text>
		<rect x="241.2" y="50.9" class="st12" width="705.8" height="78.5"/>
		<g class="st11">
			<path class="st13" d="M254.1,128.3V63.5h-11.9V50.9H283v12.6h-11.8v64.7h-17.1V128.3z"/>
			<path class="st13" d="M288.8,128.3V50.9h15.6V78c3.9-3.9,8.4-5.9,13.5-5.9c3.3,0,5.8,1.2,7.5,3.6s2.6,5.5,2.6,9.2v43.4h-15.6v-41
				c0-1.4-0.2-2.4-0.7-3.1c-0.4-0.7-1.2-1-2.4-1c-1.4,0-3,0.7-4.9,2v43.1L288.8,128.3L288.8,128.3z"/>
			<path class="st13" d="M355.5,129.3c-6.1,0-10.8-1.6-14.1-4.9c-3.3-3.3-5-7.9-5-13.8V90.7c0-5.9,1.7-10.5,5-13.8s8.1-4.9,14.1-4.9
				c6.1,0,10.7,1.6,13.8,4.7c3.1,3.2,4.6,7.8,4.6,13.9v10.9h-22.1v9.7c0,2.2,0.3,3.9,0.8,5.1c0.6,1.1,1.5,1.7,2.8,1.7
				c2.6,0,3.9-1.8,3.9-5.4V109h14.5v3.2c0,5.5-1.6,9.7-4.8,12.6C365.8,127.8,361.3,129.3,355.5,129.3z M351.8,94.3h7.6v-5.5
				c0-2.1-0.3-3.5-1-4.4s-1.7-1.3-2.9-1.3c-1.2,0-2.1,0.5-2.7,1.5s-0.9,2.7-0.9,5.1v4.6H351.8z"/>
			<path class="st13" d="M382.3,128.3V73h15.3v4.5c3.7-3.7,8.1-5.5,13.2-5.5c2.2,0,4.1,0.6,5.7,1.7s2.9,2.7,3.7,4.9
				c3.9-4.4,8.6-6.5,14.1-6.5c3.2,0,5.8,1.2,7.7,3.5c1.9,2.4,2.9,5.6,2.9,9.8v42.9h-15.3V86.9c0-1.5-0.3-2.6-0.8-3.3
				c-0.5-0.7-1.4-1-2.5-0.9c-1.7,0.1-3.4,0.7-5.1,2v0.7v42.9H406V86.9c0-1.5-0.3-2.6-0.8-3.3c-0.5-0.7-1.4-1-2.5-1
				c-1.6,0.1-3.3,0.8-5.2,2.1v43.5h-15.2V128.3z"/>
			<path class="st13" d="M472.3,129.3c-6.1,0-10.8-1.6-14.1-4.9c-3.3-3.3-5-7.9-5-13.8V90.7c0-5.9,1.7-10.5,5-13.8s8.1-4.9,14.1-4.9
				c6.1,0,10.7,1.6,13.8,4.7c3.1,3.2,4.6,7.8,4.6,13.9v10.9h-22.1v9.7c0,2.2,0.3,3.9,0.8,5.1c0.6,1.1,1.5,1.7,2.8,1.7
				c2.6,0,3.9-1.8,3.9-5.4V109h14.5v3.2c0,5.5-1.6,9.7-4.8,12.6C482.7,127.8,478.1,129.3,472.3,129.3z M468.6,94.3h7.6v-5.5
				c0-2.1-0.3-3.5-1-4.4s-1.7-1.3-2.9-1.3c-1.2,0-2.1,0.5-2.7,1.5s-0.9,2.7-0.9,5.1v4.6H468.6z"/>
			<path class="st13" d="M515.4,129.3c-4.7,0-8.6-1.1-11.7-3.3s-5.6-5.7-7.5-10.6l10.8-4.7c1.1,2.6,2.3,4.6,3.7,6.1
				c1.3,1.3,2.6,2,4,2c0.2,0,0.3,0,0.5,0c1-0.1,1.8-0.4,2.4-1.1c0.7-0.7,1-1.6,0.9-2.6c0-0.5-0.2-1.1-0.6-1.7c-0.4-0.6-1-1.4-2-2.3
				s-1.7-1.6-2.1-1.9c-0.4-0.3-1.3-1.1-2.7-2.3l-4.3-3.7c-6.3-5.3-9.4-10.5-9.4-15.5c0-3,0.8-5.7,2.4-8.1s3.6-4.2,6.2-5.4
				s5.4-1.9,8.4-1.9c4.5,0,8.3,1.2,11.3,3.7s5.2,6,6.4,10.5l-10,4.5c-0.6-2.1-1.5-3.9-2.7-5.5s-2.5-2.4-4-2.5c-0.1,0-0.1,0-0.1,0
				c-1.1,0-2,0.3-2.6,0.9c-0.7,0.6-1,1.4-1.1,2.3c-0.1,1.5,2.1,4.1,6.6,7.9c0.4,0.3,0.7,0.6,0.8,0.7l4.2,3.7
				c1.6,1.4,2.8,2.5,3.6,3.3s1.8,1.9,2.9,3.3c1.2,1.4,2,2.8,2.5,4.3s0.8,3,0.8,4.7c0,3.1-0.8,5.9-2.5,8.2c-1.7,2.3-3.8,4.1-6.5,5.2
				C521.4,128.7,518.5,129.3,515.4,129.3z"/>
			<path class="st13" d="M564.9,128.3V50.9h20.2c2.9,0,5.5,0.1,7.7,0.4s4.5,0.9,6.7,1.8s4.1,2,5.5,3.5c1.4,1.4,2.6,3.4,3.5,5.9
				c0.8,2.3,1.2,5,1.2,8c0,0.2,0,0.4,0,0.7c-0.1,9-3.9,14.2-11.3,15.5c4.4,0.6,7.8,2.5,10.2,5.6s3.5,7.5,3.6,13c0,0.2,0,0.4,0,0.5
				c0,7.6-2,13.2-5.9,16.8c-4,3.7-9.9,5.6-17.5,5.6h-23.9V128.3z M582,81.8h3.3c3.7,0,6.2-0.8,7.5-2.5c1.3-1.6,2-4.3,2-7.8
				c0-6.1-3.3-9.1-10-9.1H582V81.8z M582,116.3h3.6c3.7,0,6.3-0.9,7.8-2.7s2.2-4.7,2.2-8.5c0-4.4-0.8-7.4-2.3-9.2s-4.2-2.7-8-2.7
				H582V116.3z"/>
			<path class="st13" d="M652.6,124.6c-3.4,3.1-8.2,4.7-14.2,4.7s-10.8-1.6-14.1-4.7s-5.1-7.6-5.1-13.5V90.2
				c0-5.9,1.7-10.4,5.1-13.5s8.1-4.6,14.1-4.6s10.8,1.6,14.2,4.7s5.2,7.6,5.2,13.5v20.9C657.8,117,656.1,121.5,652.6,124.6z
				 M638.4,118.8c1.5,0,2.5-0.6,3.1-1.7s0.9-2.8,0.9-5v-23c0-2.2-0.3-3.9-0.9-5c-0.6-1.1-1.6-1.7-3.1-1.7c-1.4,0-2.4,0.6-3,1.7
				s-0.9,2.8-0.9,5v23c0,2.1,0.3,3.8,0.9,4.9C636,118.2,637,118.8,638.4,118.8z"/>
			<path class="st13" d="M698.8,124.6c-3.4,3.1-8.2,4.7-14.2,4.7s-10.8-1.6-14.1-4.7c-3.4-3.1-5.1-7.6-5.1-13.5V90.2
				c0-5.9,1.7-10.4,5.1-13.5c3.4-3.1,8.1-4.6,14.1-4.6s10.8,1.6,14.2,4.7s5.2,7.6,5.2,13.5v20.9C704,117,702.2,121.5,698.8,124.6z
				 M684.6,118.8c1.5,0,2.5-0.6,3.1-1.7s0.9-2.8,0.9-5v-23c0-2.2-0.3-3.9-0.9-5c-0.6-1.1-1.6-1.7-3.1-1.7c-1.4,0-2.4,0.6-3,1.7
				s-0.9,2.8-0.9,5v23c0,2.1,0.3,3.8,0.9,4.9C682.1,118.2,683.2,118.8,684.6,118.8z"/>
			<path class="st13" d="M728.3,128.9c-1.7-0.1-3.3-0.3-4.6-0.7c-1.4-0.4-2.6-1-3.5-1.6c-1-0.7-1.8-1.5-2.5-2.5s-1.3-2-1.7-3.1
				s-0.8-2.3-1-3.7s-0.4-2.7-0.5-4s-0.1-2.7-0.1-4.4V83.2h-5.3V73h5.3V56.3h15.7V73h7.9v10.2h-7.9v28.6c0,2.9,1.7,4.4,5,4.5
				c0.4,0,0.9,0,1.4,0s0.9-0.1,1.3-0.1c0.3,0,0.7-0.1,1-0.2s0.5-0.1,0.5-0.1v12.3c-3.3,0.6-6.4,0.8-9.2,0.8
				C729.3,129,728.8,129,728.3,128.9z"/>
			<path class="st13" d="M762.6,129.3c-4.7,0-8.6-1.1-11.7-3.3s-5.6-5.7-7.5-10.6l10.8-4.7c1.1,2.6,2.3,4.6,3.7,6.1
				c1.3,1.3,2.6,2,4,2c0.2,0,0.3,0,0.5,0c1-0.1,1.8-0.4,2.4-1.1s1-1.6,0.9-2.6c0-0.5-0.2-1.1-0.6-1.7c-0.4-0.6-1-1.4-2-2.3
				s-1.7-1.6-2.1-1.9c-0.4-0.3-1.3-1.1-2.7-2.3L754,103c-6.3-5.3-9.4-10.5-9.4-15.5c0-3,0.8-5.7,2.4-8.1c1.6-2.4,3.6-4.2,6.2-5.4
				s5.4-1.9,8.4-1.9c4.5,0,8.3,1.2,11.3,3.7s5.2,6,6.4,10.5l-10,4.7c-0.6-2.1-1.5-3.9-2.7-5.5s-2.5-2.4-4-2.5c-0.1,0-0.1,0-0.1,0
				c-1.1,0-2,0.3-2.6,0.9c-0.7,0.6-1,1.4-1.1,2.3c-0.1,1.5,2.1,4.1,6.6,7.9c0.4,0.3,0.7,0.6,0.8,0.7l4.2,3.7
				c1.6,1.4,2.8,2.5,3.6,3.3s1.8,1.9,2.9,3.3c1.2,1.4,2,2.8,2.5,4.3s0.8,3,0.8,4.7c0,3.1-0.8,5.9-2.5,8.2c-1.7,2.3-3.8,4.1-6.5,5.2
				C768.6,128.7,765.7,129.3,762.6,129.3z"/>
			<path class="st13" d="M802.4,128.9c-1.7-0.1-3.3-0.3-4.6-0.7c-1.4-0.4-2.6-1-3.5-1.6c-1-0.7-1.8-1.5-2.5-2.5s-1.3-2-1.7-3.1
				s-0.8-2.3-1-3.7s-0.4-2.7-0.5-4s-0.1-2.7-0.1-4.4V83.2h-5.3V73h5.3V56.3h15.7V73h7.9v10.2h-7.9v28.6c0,2.9,1.7,4.4,5,4.5
				c0.4,0,0.9,0,1.4,0s0.9-0.1,1.3-0.1c0.3,0,0.7-0.1,1-0.2s0.5-0.1,0.5-0.1v12.3c-3.3,0.6-6.4,0.8-9.2,0.8
				C803.5,129,803,129,802.4,128.9z"/>
			<path class="st13" d="M820.7,128.3V73h15.6v9.2c3.4-6.6,7.1-9.9,11.1-9.9c0.6,0,1.3,0.1,2.2,0.4v13.8c-0.9-0.2-1.7-0.3-2.6-0.3
				c-4.3,0.2-7.8,2.4-10.7,6.7v35.4L820.7,128.3L820.7,128.3z"/>
			<path class="st13" d="M867.1,129.3c-3.9-0.1-7-1.5-9.4-4.2c-2.3-2.7-3.5-5.8-3.5-9.3c0-1.8,0.2-3.5,0.7-5.1s1-2.9,1.6-4.1
				s1.5-2.3,2.7-3.4s2.2-2,3.1-2.6c0.9-0.7,2.2-1.4,3.7-2.1c1.5-0.8,2.8-1.3,3.7-1.7c0.9-0.4,2.2-0.9,3.8-1.5s2.7-1,3.4-1.3v-5.5
				c0-1.6-0.2-2.8-0.7-3.6s-1.3-1.3-2.6-1.3c-2.1,0-3.2,1.5-3.4,4.4l-0.4,4.1l-14.6-0.6c0-0.1,0-0.4,0-0.9s0-0.8,0-0.9
				c0.5-6,2.3-10.5,5.6-13.3c3.3-2.9,8-4.3,14.1-4.3c5.4,0,9.6,1.5,12.4,4.5c2.8,3,4.3,7,4.3,12.1v25.7c0,3.5,0.3,8.2,1,13.9H879
				c-0.8-4.5-1.2-7.1-1.3-7.8c-0.7,2.5-2,4.6-3.8,6.3C872.1,128.4,869.8,129.3,867.1,129.3z M872.7,118.5c0.7,0,1.5-0.3,2.3-0.8
				s1.4-1.1,1.9-1.8v-15.1c-2.5,1.2-4.5,3-6.1,5.3s-2.4,4.5-2.4,6.6c0,1.8,0.4,3.2,1.2,4.3C870.4,118,871.5,118.5,872.7,118.5z"/>
			<path class="st13" d="M901.2,146.5V73h15.6v4.1c3.8-3.3,7.6-5,11.5-5c0.2,0,0.4,0,0.5,0c4,0.1,6.9,1.7,8.9,4.8
				c1.9,3,2.9,6.9,2.9,11.6V112c0,5.3-1,9.5-3.2,12.6c-2.1,3.1-5.1,4.7-9,4.7s-7.7-1.7-11.7-5.1v22.4h-15.5V146.5z M921,119.1
				C921,119.1,921.1,119.1,921,119.1c1.4,0,2.4-0.6,3-1.7c0.6-1.2,0.9-2.7,1-4.5V87.2c0-1.7-0.3-3.1-1-4.2c-0.6-1-1.5-1.5-2.7-1.5
				c-0.1,0-0.3,0-0.4,0c-1.2,0.1-2.5,0.7-4.1,1.8v34.3C918.3,118.6,919.7,119.1,921,119.1z"/>
		</g>
	</g>
</g>
</svg>
